<svg xmlns="http://www.w3.org/2000/svg" style="display: none;"><symbol id="multimedia" viewBox="0 0 60 60"><title>multimedia</title><path d="M30,0C13.458,0,0,13.458,0,30s13.458,30,30,30s30-13.458,30-30S46.542,0,30,0z M45.563,30.826l-22,15 C23.394,45.941,23.197,46,23,46c-0.16,0-0.321-0.038-0.467-0.116C22.205,45.711,22,45.371,22,45V15c0-0.371,0.205-0.711,0.533-0.884 c0.328-0.174,0.724-0.15,1.031,0.058l22,15C45.836,29.36,46,29.669,46,30S45.836,30.64,45.563,30.826z"/></symbol><symbol id="edit" viewBox="0 0 300 300"><title>edit</title><path d="M149.996,0C67.157,0,0.001,67.161,0.001,149.997S67.157,300,149.996,300s150.003-67.163,150.003-150.003 S232.835,0,149.996,0z M221.302,107.945l-14.247,14.247l-29.001-28.999l-11.002,11.002l29.001,29.001l-71.132,71.126 l-28.999-28.996L84.92,186.328l28.999,28.999l-7.088,7.088l-0.135-0.135c-0.786,1.294-2.064,2.238-3.582,2.575l-27.043,6.03 c-0.405,0.091-0.817,0.135-1.224,0.135c-1.476,0-2.91-0.581-3.973-1.647c-1.364-1.359-1.932-3.322-1.512-5.203l6.027-27.035 c0.34-1.517,1.286-2.798,2.578-3.582l-0.137-0.137L192.3,78.941c1.678-1.675,4.404-1.675,6.082,0.005l22.922,22.917 C222.982,103.541,222.982,106.267,221.302,107.945z"/></symbol><symbol id="exit" viewBox="0 0 27.965 27.965"><title>exit</title><path d="M13.98,0C6.259,0,0,6.261,0,13.983c0,7.721,6.259,13.982,13.98,13.982c7.725,0,13.985-6.262,13.985-13.982 C27.965,6.261,21.705,0,13.98,0z M19.992,17.769l-2.227,2.224c0,0-3.523-3.78-3.786-3.78c-0.259,0-3.783,3.78-3.783,3.78 l-2.228-2.224c0,0,3.784-3.472,3.784-3.781c0-0.314-3.784-3.787-3.784-3.787l2.228-2.229c0,0,3.553,3.782,3.783,3.782 c0.232,0,3.786-3.782,3.786-3.782l2.227,2.229c0,0-3.785,3.523-3.785,3.787C16.207,14.239,19.992,17.769,19.992,17.769z"/></symbol><symbol id="help" viewBox="0 0 512 512"><title>help</title><path d="m341.070312 219.390625c0-18.429687-5.820312-35.976563-16.835937-50.742187-6.339844-8.5-14.273437-15.761719-23.210937-21.375v77.109374h-90.046876v-77.109374c-8.9375 5.613281-16.871093 12.875-23.210937 21.375-11.015625 14.765624-16.835937 32.3125-16.835937 50.742187 0 33.769531 20.042968 64.375 51.058593 77.96875l8.980469 3.933594v69.433593c16.449219 3.128907 33.613281 3.128907 50.0625 0v-69.433593l8.980469-3.9375c31.019531-13.589844 51.058593-44.195313 51.058593-77.964844zm0 0"/><path d="m512 319.019531v-126.039062h-40.730469c-4.539062-15.484375-10.742187-30.40625-18.535156-44.59375l28.847656-28.847657-89.125-89.117187-28.847656 28.84375c-14.183594-7.792969-29.105469-13.996094-44.589844-18.53125v-40.734375h-126.039062v40.730469c-15.480469 4.539062-30.40625 10.742187-44.59375 18.535156l-28.84375-28.84375-89.125 89.121094 28.847656 28.847656c-7.789063 14.179687-13.996094 29.109375-18.53125 44.589844h-40.734375v126.039062h40.734375c4.535156 15.480469 10.742187 30.410157 18.53125 44.59375l-28.847656 28.847657 89.125 89.121093 28.84375-28.847656c14.1875 7.792969 29.113281 13.996094 44.59375 18.535156v40.730469h126.039062v-40.730469c15.484375-4.539062 30.40625-10.742187 44.59375-18.535156l28.847657 28.847656 89.121093-89.121093-28.847656-28.847657c7.792969-14.1875 13.996094-29.109375 18.535156-44.59375zm-256 84.058594c-14.9375 0-29.765625-2.03125-44.074219-6.035156l-10.957031-3.066407v-73.546874c-36.777344-20.0625-60.039062-58.707032-60.039062-101.039063 0-24.945313 7.878906-48.691406 22.789062-68.679687 14.398438-19.304688 34.910156-33.898438 57.75-41.097657l19.507812-6.144531v90.914062h30.046876v-90.914062l19.507812 6.144531c22.839844 7.199219 43.351562 21.792969 57.746094 41.097657 14.914062 19.984374 22.792968 43.734374 22.792968 68.679687 0 42.332031-23.261718 80.976563-60.039062 101.039063v73.546874l-10.957031 3.066407c-14.308594 4.003906-29.136719 6.035156-44.074219 6.035156zm0 0"/></symbol><symbol id="graph" viewBox="0 0 485.019 485.019"><title>graph</title><path d="M324.718,66.719c6.7-14.4,13.4-28.7,20.5-44c-78-32.8-154.1-31.2-226.9,12.1c-70.3,41.9-108.5,105.4-118.3,187.3 c16.7,1.5,32.5,2.8,48.3,4.2C56.918,102.619,193.618,7.719,324.718,66.719z"/><path d="M481.518,201.219c-15.7,2.7-31.3,5.5-47.6,8.3c8.4,56.7-3.2,107.7-37.9,152.4c-34.4,44.5-80.4,69-136.8,75.2 c1.4,16,2.7,31.6,4.1,47.2C381.318,480.119,507.718,361.619,481.518,201.219z"/><path d="M47.518,260.319c-15,1.3-30.6,2.6-46.2,4c3.6,98.9,89.9,210.1,219.9,220.7c1.4-16,2.8-31.7,4.1-46.9 C123.718,421.119,64.718,362.219,47.518,260.319z"/><path d="M396.318,124.819c12.1,15.7,21.5,33,28.8,52c15.1-5.5,30-10.9,45.6-16.6c-18-47.9-47.4-86-89-115.9 c-9.3,13.2-18.4,26.2-27.8,39.7C369.918,95.819,384.218,109.119,396.318,124.819z"/><path d="M302.218,177.819c-4.4,0-7.9,3.5-7.9,7.9v156.3c0,4.4,3.5,7.9,7.9,7.9h54.1c4.4,0,7.9-3.5,7.9-7.9v-156.3 c0-4.4-3.5-7.9-7.9-7.9H302.218z M348.418,334.119h-38.3v-140.4h38.3V334.119z"/><path d="M128.718,219.319c-4.4,0-7.9,3.5-7.9,7.9v114.8c0,4.4,3.5,7.9,7.9,7.9h54.1c4.4,0,7.9-3.5,7.9-7.9v-114.8 c0-4.4-3.5-7.9-7.9-7.9H128.718z M136.618,334.119v-12.3l12.3,12.3H136.618z M161.418,334.119l-24.8-24.8v-12.5l37.4,37.4h-12.6 V334.119z M174.918,322.519l-38.3-38.3v-12.5l38.3,38.3V322.519z M174.918,297.519l-38.3-38.3v-12.5l38.3,38.3V297.519z M174.918,272.519l-37.3-37.3h12.5l24.8,24.8V272.519z M174.918,247.419l-12.3-12.3h12.3V247.419z"/><path d="M215.418,114.319c-4.4,0-7.9,3.5-7.9,7.9v219.8c0,4.4,3.5,7.9,7.9,7.9h54.1c4.4,0,7.9-3.5,7.9-7.9v-219.8 c0-4.4-3.5-7.9-7.9-7.9C269.518,114.319,215.418,114.319,215.418,114.319z"/></symbol></svg>